<svg version="1.0" xmlns="http://www.w3.org/2000/svg"
 width="378.000000" height="284.000000" viewBox="0 0 378.000000 284.000000"
 preserveAspectRatio="xMidYMid meet">
<defs><linearGradient id="pinkGrad" x1="0%" y1="0%" x2="100%" y2="100%"><stop offset="0%" stop-color="#FF4DA1"/><stop offset="100%" stop-color="#FF007A"/></linearGradient></defs>
<g transform="translate(0.000000,284.000000) scale(0.100000,-0.100000)"
fill="url(#pinkGrad)" stroke="none">
<path d="M1145 2830 c-11 -5 -34 -9 -50 -9 -17 -1 -35 -5 -40 -10 -6 -4 -32
-14 -58 -21 -55 -15 -74 -36 -137 -150 -70 -127 -92 -202 -94 -311 -2 -94 -3
-99 -49 -187 -26 -50 -47 -99 -47 -109 0 -9 12 -29 26 -44 21 -22 27 -39 30
-90 3 -35 9 -68 14 -73 6 -6 10 -34 10 -62 0 -45 4 -57 31 -83 27 -28 50 -36
85 -32 15 2 24 -33 24 -98 0 -40 -18 -109 -71 -270 -39 -119 -75 -224 -80
-233 -5 -10 -9 -29 -9 -43 0 -25 1 -25 78 -25 89 0 74 -19 127 155 15 50 31
99 35 110 4 11 22 67 40 123 30 96 32 108 21 160 -6 30 -20 70 -31 89 -19 33
-19 33 23 33 41 0 43 -2 64 -47 27 -59 40 -148 25 -166 -22 -27 -138 -369
-168 -497 -25 -103 -16 -246 21 -332 5 -13 -2 -21 -32 -33 -80 -35 -503 -131
-638 -145 -112 -12 -161 -31 -215 -82 -68 -64 -97 -166 -70 -245 8 -21 26 -37
68 -57 50 -25 73 -29 197 -37 77 -4 242 -8 367 -8 205 -1 232 1 278 19 49 19
85 21 748 29 634 8 701 7 742 -8 39 -14 108 -16 550 -16 535 0 572 3 670 48
61 29 122 93 138 144 15 52 16 251 1 307 -72 272 -151 420 -309 576 -135 133
-271 199 -440 215 -317 29 -439 50 -590 102 -100 34 -131 51 -155 82 -11 14
-35 40 -53 57 -34 32 -33 44 3 44 45 0 48 21 20 117 -15 48 -30 102 -35 118
-10 35 -50 165 -78 250 -39 119 -131 344 -162 396 -68 118 -88 146 -130 189
-74 73 -178 124 -323 159 -55 13 -342 14 -372 1z m-108 -127 c-40 -55 -77
-126 -77 -146 0 -10 16 -17 48 -22 26 -3 74 -13 107 -22 59 -15 60 -15 74 9 8
12 44 52 81 88 62 61 107 90 190 121 42 16 167 16 183 0 6 -6 19 -11 28 -11
10 0 21 -5 25 -11 4 -8 -3 -9 -23 -5 -45 10 -164 -21 -230 -60 -64 -38 -135
-106 -177 -170 -27 -42 -27 -42 -57 -27 -60 30 -200 61 -296 65 -17 1 -31 4
-29 7 44 104 120 212 156 222 14 4 27 7 28 8 2 1 -12 -20 -31 -46z m763 -216
c45 -10 57 -18 73 -44 18 -32 18 -32 -15 -22 -45 13 -156 10 -198 -4 -26 -9
-34 -18 -32 -32 1 -11 5 -53 9 -92 6 -73 6 -73 102 -74 53 0 127 -6 164 -12
64 -11 70 -14 83 -45 13 -33 13 -33 -29 -26 -87 14 -291 15 -316 2 -17 -9 -33
-38 -57 -100 -17 -49 -31 -88 -30 -89 0 0 64 -2 141 -3 77 -2 192 -9 257 -16
116 -13 116 -13 122 -43 3 -17 4 -32 2 -35 -3 -2 -33 1 -68 7 -88 15 -350 24
-428 14 -65 -8 -65 -8 -101 -83 -65 -133 -94 -117 238 -123 288 -4 413 -17
292 -29 -210 -22 -418 -239 -539 -563 -4 -11 -13 -33 -20 -50 -21 -49 -28 -68
-41 -108 -9 -26 -21 -40 -39 -45 -30 -8 -337 -9 -345 0 -6 6 49 184 97 313 53
141 129 339 145 375 8 19 19 44 23 55 5 11 20 46 34 77 14 31 26 59 26 62 0 3
13 34 29 68 15 35 34 80 42 101 8 24 27 46 52 63 81 53 115 111 136 230 9 48
9 73 -1 110 -14 50 -58 104 -86 104 -30 0 47 43 102 56 63 15 105 15 176 1z
m-785 -63 c27 -3 54 -9 60 -14 5 -4 30 -14 55 -22 53 -15 159 -71 189 -99 22
-20 41 -25 41 -9 0 5 14 25 31 45 27 30 37 35 76 35 41 0 45 -2 60 -37 26 -63
6 -187 -40 -245 -24 -31 -67 -47 -94 -37 -29 11 -43 4 -43 -19 0 -53 -59 -164
-110 -209 -58 -51 -201 -93 -319 -93 -91 0 -102 8 -95 64 3 28 0 44 -12 57
-10 11 -13 20 -8 20 5 1 14 2 19 4 6 1 23 3 38 3 41 3 29 24 -24 43 -48 18
-62 43 -30 54 41 13 18 42 -46 60 -13 4 -23 10 -23 14 0 4 21 45 46 92 44 82
46 86 47 180 1 65 6 101 16 113 14 17 31 17 166 0z m1131 -927 c17 -9 53 -40
80 -70 57 -63 81 -76 189 -105 116 -30 197 -40 410 -53 294 -16 398 -51 536
-178 64 -58 168 -199 201 -271 67 -146 104 -318 87 -401 -13 -61 -45 -133 -67
-152 -13 -10 -14 -8 -7 13 10 31 10 228 1 258 -12 37 -26 25 -26 -22 0 -23 -4
-56 -9 -72 -5 -16 -14 -54 -21 -84 -17 -74 -52 -142 -91 -174 -80 -68 -157
-78 -559 -74 -325 3 -325 3 -328 33 -4 43 22 100 58 125 16 12 30 26 30 32 0
17 -78 0 -110 -23 -31 -23 -70 -95 -70 -129 0 -26 -16 -26 -31 1 -28 52 22
151 98 196 48 28 48 28 243 27 107 0 236 -6 285 -12 50 -7 107 -15 128 -18 46
-6 47 13 1 36 -16 8 -31 17 -34 20 -3 3 -18 12 -35 20 -16 8 -34 18 -40 23 -5
4 -38 26 -73 49 -82 54 -180 159 -215 232 -22 44 -29 73 -30 124 -1 98 19 156
77 219 65 72 129 103 222 110 92 7 101 28 18 39 -179 22 -315 -53 -397 -219
-45 -93 -57 -139 -57 -223 0 -109 34 -210 94 -279 26 -30 26 -30 -71 -37 -53
-4 -101 -12 -107 -18 -5 -5 -20 -10 -33 -10 -13 0 -23 -4 -23 -10 0 -5 -6 -10
-13 -10 -7 0 -30 -14 -50 -31 -66 -54 -184 -50 -263 8 -46 34 -84 119 -84 189
0 61 6 85 51 204 16 41 29 78 29 83 0 53 -143 -165 -202 -308 -9 -22 -28 -78
-43 -125 -57 -183 -83 -224 -165 -259 -66 -28 -182 -39 -330 -30 -297 18 -417
10 -540 -36 -75 -28 -162 -41 -214 -31 -29 6 -36 12 -36 29 1 38 38 106 64
118 32 15 24 29 -15 29 -64 0 -108 -41 -129 -118 -12 -46 -11 -45 -34 -36 -25
10 -20 78 8 123 14 21 41 49 60 61 66 40 14 55 -69 20 -53 -23 -89 -61 -125
-133 -28 -57 -59 -73 -116 -63 -28 6 -34 11 -34 31 0 27 28 105 39 105 3 1 17
10 30 21 17 14 21 23 14 30 -15 15 -80 -6 -111 -35 -29 -26 -62 -88 -62 -116
0 -18 -3 -19 -20 -10 -26 14 -27 68 -1 118 39 76 93 101 229 107 54 2 133 9
177 15 44 6 109 15 145 20 76 10 446 65 540 81 36 5 94 15 130 21 77 12 152
39 158 56 2 8 -14 12 -58 12 -49 0 -60 3 -52 13 6 7 36 91 67 187 31 96 66
198 77 225 34 85 111 240 120 243 4 2 8 8 8 14 0 5 20 36 45 68 138 180 321
255 451 187z"/>
<path d="M1431 1600 c-18 -4 -39 -14 -45 -21 -15 -17 -95 -206 -148 -349 -21
-58 -52 -141 -68 -186 -17 -45 -30 -86 -30 -93 0 -7 32 -11 105 -11 118 0 108
-7 145 100 37 105 123 280 177 361 47 70 123 152 157 171 9 5 16 16 16 23 0
13 -24 15 -137 14 -76 -1 -153 -5 -172 -9z"/>
<path d="M872 2324 c-6 -10 -5 -32 1 -55 6 -26 6 -48 -2 -70 -6 -18 -11 -38
-11 -45 0 -19 84 -18 142 1 45 16 118 73 118 93 0 16 -64 62 -107 78 -55 19
-130 18 -141 -2z"/>
</g>
</svg>
